<?xml version="1.0" encoding="utf-8"?>
<!-- Generator: Adobe Illustrator 22.0.0, SVG Export Plug-In . SVG Version: 6.00 Build 0)  -->
<svg version="1.1" id="Capa_1" xmlns="http://www.w3.org/2000/svg" xmlns:xlink="http://www.w3.org/1999/xlink" x="0px" y="0px"
	 viewBox="0 0 1416 735" style="enable-background:new 0 0 1416 735;" xml:space="preserve">
<g>
	<path style="fill:#E8114B;" d="M1276.8,124.5c1.5-0.6,3.1-0.2,4.7,1.1c1.1,1.1,1.4,2.6,0.9,4.4l-15.5,43.2l17.1-4.1
		c1.5-0.6,2.4-1.1,2.7-1.6l34.8-57.8c0.7-1.1,1.5-1.8,2.2-1.9l49.7-17.9c5.1-1.8,9-4.4,11.5-7.8s3-7.1,1.5-11.1
		c-0.4-1.1-1-2.3-1.8-3.6c-0.9-1.3-2.2-2.4-4-3.3s-4.4-1.3-7.8-1.3c-3.3,0.1-7.7,1.1-13.2,2.9L1323,78.8c-1.1,0.3-2.2,0.3-3.3-0.1
		c-1.1-0.5-1.8-1.3-2.2-2.3c-0.4-1.3-0.3-2.4,0.3-3.5c0.6-1,1.4-1.7,2.5-2l36.7-13.2c20.1-7,32.6-3.5,37.6,10.5
		c1.7,4.6,1.9,8.8,0.8,12.5c-1.1,3.8-3.3,7.1-6.6,10.1c-3.3,3-7.5,5.3-12.4,7.2l-48.1,17.3l-34.3,57c-1.1,2-3.7,3.8-7.8,5.2
		l-22.4,5.2c-2.6,0.6-4.5,0-5.8-1.6s-1.5-3.6-0.9-5.8l14.1-39.6l-33.4,11.6c-9.2,3.1-17.8,3.4-25.8,0.8c-8-2.6-14.2-7.7-18.6-15.4
		l-19-33.6c-2.6-4.8-1.4-8.1,3.6-9.9l14.7-5.2c3-1.1,5.7-0.6,8.3,1.4l26.2,19.6l32.8-12.1l-41.7-40.8c-1.3-1.6-1.8-3.4-1.7-5.2
		c0.6-1.8,1.8-3.1,3.6-3.9h0.3l21-5.8c2.6-0.9,5.1-0.6,7.7,0.9l43.4,23.7c1.1,0.6,1.8,1.4,2.1,2.6c0.3,1.2,0.1,2.3-0.4,3.2
		c-0.6,1.1-1.4,1.8-2.5,2.2c-1.1,0.4-2.2,0.3-3.3-0.3L1245,45.4c-0.2-0.2-0.5-0.2-1.1,0l-15.7,4.4l42.8,41.5c0.4,0.6,0.7,1.2,1,1.9
		c0.3,0.7,0.3,1.5,0.2,2.2c-0.4,1.5-1.3,2.5-2.7,3l-41.5,15.1c-1.7,0.4-3,0.2-3.9-0.6l-28.7-21.2l-12.7,4.7l18,31.7
		c3.3,6.1,8,10.1,14.1,12s13,1.5,20.7-1.3L1276.8,124.5z"/>
	<g style="enable-background:new    ;">
		<path style="fill:#FFFFFF;" d="M93.87,365.86h104.46v40.05H45.34V145.03h48.53V365.86z"/>
		<path style="fill:#FFFFFF;" d="M461.2,405.91h-37.53c-4.21,0-7.67-1.05-10.37-3.16c-2.71-2.1-4.66-4.72-5.86-7.85l-19.48-53.22
			H279.88l-19.48,53.22c-0.96,2.77-2.86,5.29-5.68,7.58c-2.83,2.29-6.29,3.43-10.37,3.43h-37.71l102.48-260.88h49.61L461.2,405.91z
			 M292.33,307.4h83.17l-31.75-86.78c-1.44-3.85-3.04-8.39-4.78-13.62c-1.74-5.23-3.46-10.92-5.14-17.05
			c-1.69,6.13-3.34,11.85-4.96,17.14c-1.62,5.29-3.22,9.92-4.78,13.89L292.33,307.4z"/>
		<path style="fill:#FFFFFF;" d="M645.41,145.03v39.87h-78.48v221.01H518.4V184.9h-78.84v-39.87H645.41z"/>
		<path style="fill:#FFFFFF;" d="M879.05,405.91h-37.53c-4.21,0-7.67-1.05-10.37-3.16c-2.71-2.1-4.66-4.72-5.86-7.85l-19.49-53.22
			H697.73l-19.48,53.22c-0.96,2.77-2.86,5.29-5.68,7.58c-2.83,2.29-6.29,3.43-10.37,3.43h-37.71l102.48-260.88h49.61L879.05,405.91z
			 M710.18,307.4h83.17l-31.75-86.78c-1.44-3.85-3.04-8.39-4.78-13.62c-1.75-5.23-3.46-10.92-5.14-17.05
			c-1.69,6.13-3.34,11.85-4.96,17.14c-1.62,5.29-3.22,9.92-4.78,13.89L710.18,307.4z"/>
		<path style="fill:#FFFFFF;" d="M1042.59,309.66c1.74,4.15,3.46,8.33,5.14,12.54c1.68-4.33,3.43-8.6,5.23-12.81
			c1.8-4.21,3.73-8.24,5.77-12.09l77.22-144.51c0.96-1.8,1.95-3.25,2.98-4.33c1.02-1.08,2.16-1.86,3.43-2.34
			c1.26-0.48,2.67-0.78,4.24-0.9c1.56-0.12,3.43-0.18,5.59-0.18h36.63v260.88h-42.76V237.4c0-3.13,0.09-6.55,0.27-10.28
			c0.18-3.73,0.45-7.52,0.81-11.37l-78.84,147.94c-1.8,3.37-4.15,5.99-7.04,7.85c-2.89,1.87-6.26,2.8-10.1,2.8h-6.67
			c-3.85,0-7.22-0.93-10.1-2.8c-2.89-1.86-5.23-4.48-7.04-7.85l-79.92-148.48c0.48,3.97,0.81,7.85,0.99,11.64
			c0.18,3.79,0.27,7.31,0.27,10.55v168.51h-42.76V145.03h36.63c2.17,0,4.03,0.06,5.59,0.18c1.56,0.12,2.98,0.42,4.24,0.9
			c1.26,0.48,2.44,1.26,3.52,2.34c1.08,1.08,2.1,2.53,3.07,4.33l77.94,144.88C1038.95,301.51,1040.85,305.51,1042.59,309.66z"/>
	</g>
	<g>
		<g style="enable-background:new    ;">
			<path style="fill:#E8114B;" d="M91.95,427.68h37.53c4.09,0,7.34,0.99,9.74,2.98c2.4,1.99,3.91,4.54,4.51,7.67l34.82,162.56
				c1.2,5.66,2.35,11.34,3.43,17.05c1.08,5.71,2.1,11.82,3.07,18.31c2.04-6.49,4.33-12.72,6.86-18.67s4.99-11.52,7.4-16.69
				l74.15-162.56c1.2-2.64,3.34-5.08,6.4-7.31c3.07-2.22,6.52-3.34,10.37-3.34h37.89L199.3,688.57h-42.58L91.95,427.68z"/>
			<path style="fill:#E8114B;" d="M387.11,503.46l-22.19,185.11H320.9l22.19-185.11H387.11z M398.29,449.51
				c0,3.85-0.81,7.46-2.44,10.83c-1.62,3.37-3.73,6.31-6.31,8.84c-2.59,2.53-5.56,4.54-8.93,6.04c-3.37,1.5-6.86,2.25-10.46,2.25
				c-3.49,0-6.89-0.75-10.19-2.25c-3.31-1.5-6.22-3.52-8.75-6.04c-2.53-2.53-4.54-5.47-6.04-8.84c-1.51-3.37-2.25-6.97-2.25-10.83
				c0-3.85,0.78-7.51,2.35-11c1.56-3.49,3.61-6.52,6.13-9.11c2.53-2.58,5.44-4.63,8.75-6.13c3.31-1.5,6.7-2.26,10.19-2.26
				c3.61,0,7.1,0.75,10.46,2.26c3.37,1.5,6.34,3.52,8.93,6.04c2.58,2.53,4.66,5.53,6.22,9.02
				C397.51,441.82,398.29,445.54,398.29,449.51z"/>
			<path style="fill:#E8114B;" d="M409.84,688.57l22.55-185.29h22.55c4.33,0,7.88,0.96,10.64,2.89c2.77,1.93,4.15,4.99,4.15,9.2
				c0,0.84-0.06,2.29-0.18,4.33c-0.12,2.05-0.24,5.26-0.36,9.65c-0.12,4.39-0.36,10.55-0.72,18.49c7.58-14.55,15.88-25.8,24.9-33.74
				c9.02-7.94,18.4-11.91,28.15-11.91c4.93,0,9.92,1.08,14.97,3.25l-8.12,42.58c-6.02-2.53-11.73-3.79-17.14-3.79
				c-10.71,0-20.09,5.11-28.15,15.33c-8.06,10.22-14.68,26.22-19.85,47.99l-9.74,81.01H409.84z"/>
			<path style="fill:#E8114B;" d="M558.14,650.86c0-0.84,0-1.83,0-2.98c0-1.14,0.09-2.83,0.27-5.05c0.18-2.22,0.48-5.17,0.9-8.84
				c0.42-3.67,0.99-8.39,1.71-14.16l10.28-82.99h-17.5c-2.05,0-3.7-0.63-4.96-1.89c-1.26-1.26-1.89-3.16-1.89-5.68
				c0-0.12,0.03-0.36,0.09-0.72c0.06-0.36,0.15-1.17,0.27-2.44c0.12-1.26,0.33-3.16,0.63-5.68c0.3-2.53,0.69-6.07,1.17-10.64
				l28.15-4.87l14.79-50.52c0.72-2.41,1.95-4.27,3.7-5.59c1.74-1.32,3.88-1.99,6.4-1.99h23.81l-7.22,58.28h44.74l-3.79,31.75h-44.92
				l-9.92,80.65c-0.6,4.93-1.05,8.84-1.35,11.73c-0.3,2.89-0.54,5.14-0.72,6.77c-0.18,1.62-0.3,2.77-0.36,3.43
				c-0.06,0.66-0.09,1.11-0.09,1.35c0,4.57,1.11,8.18,3.34,10.83c2.22,2.65,5.38,3.97,9.47,3.97c2.53,0,4.69-0.33,6.49-0.99
				c1.8-0.66,3.37-1.35,4.69-2.07c1.32-0.72,2.5-1.41,3.52-2.08c1.02-0.66,2.01-0.99,2.98-0.99c1.32,0,2.37,0.33,3.16,0.99
				c0.78,0.66,1.47,1.66,2.07,2.98l9.56,21.65c-6.62,5.41-13.95,9.5-22.01,12.27c-8.06,2.77-16.18,4.15-24.36,4.15
				c-13.11,0-23.49-3.55-31.12-10.64C562.5,673.71,558.5,663.73,558.14,650.86z"/>
			<path style="fill:#E8114B;" d="M733.32,503.46c-2.41,20.33-4.45,37.53-6.13,51.6c-1.69,14.07-3.07,25.8-4.15,35.18
				c-1.08,9.38-1.93,16.78-2.53,22.19c-0.6,5.41-1.05,9.5-1.35,12.27c-0.3,2.77-0.48,4.63-0.54,5.59c-0.06,0.96-0.09,1.75-0.09,2.34
				c0,7.94,1.47,13.62,4.42,17.05c2.95,3.43,7.43,5.14,13.44,5.14c4.69,0,9.53-1.29,14.52-3.88c4.99-2.58,9.8-6.28,14.43-11.1
				c4.63-4.81,8.93-10.64,12.9-17.5c3.97-6.86,7.33-14.49,10.1-22.91l11.55-95.98h44.56l-22.37,185.11h-22.55
				c-2.05,0-4-0.27-5.86-0.81c-1.87-0.54-3.55-1.35-5.05-2.44c-1.5-1.08-2.71-2.46-3.61-4.15c-0.9-1.68-1.35-3.67-1.35-5.95v-0.72
				l1.08-22.55c-9.38,13.23-19.64,23.09-30.76,29.59c-11.13,6.5-22.64,9.74-34.55,9.74c-6.86,0-13.08-1.23-18.67-3.7
				c-5.59-2.46-10.37-6.04-14.34-10.74c-3.97-4.69-7.04-10.49-9.2-17.41c-2.17-6.92-3.25-14.82-3.25-23.72
				c0-2.4,0.06-4.81,0.18-7.22c0.12-2.4,0.36-4.93,0.72-7.58l13.89-117.45H733.32z"/>
			<path style="fill:#E8114B;" d="M1008.27,688.57h-23.45c-5.41,0-9.2-1.26-11.37-3.79c-2.17-2.53-3.25-5.71-3.25-9.56l1.44-25.26
				c-8.18,12.75-17.38,22.82-27.6,30.22c-10.22,7.4-21.47,11.1-33.74,11.1c-6.98,0-13.5-1.38-19.58-4.15
				c-6.08-2.77-11.37-6.88-15.88-12.36c-4.51-5.47-8.06-12.33-10.64-20.57c-2.59-8.24-3.88-17.89-3.88-28.96
				c0-11.06,1.38-21.83,4.15-32.29c2.76-10.46,6.7-20.3,11.82-29.5c5.11-9.2,11.28-17.65,18.49-25.35
				c7.22-7.7,15.3-14.31,24.27-19.85c8.96-5.53,18.64-9.83,29.05-12.9c10.4-3.07,21.38-4.6,32.93-4.6c8.3,0,16.63,0.6,24.99,1.8
				c8.36,1.2,16.57,3.37,24.63,6.5L1008.27,688.57z M927.81,654.83c4.93,0,9.77-1.68,14.52-5.05c4.75-3.37,9.23-8.03,13.44-13.98
				c4.21-5.95,8.12-12.96,11.73-21.02c3.61-8.06,6.73-16.72,9.38-25.98l7.04-55.93c-3.25-0.36-6.26-0.54-9.02-0.54
				c-9.99,0-19.25,2.29-27.78,6.86c-8.54,4.57-15.94,10.73-22.19,18.49c-6.26,7.76-11.16,16.78-14.7,27.06
				c-3.55,10.28-5.32,21.14-5.32,32.57c0,12.99,2.04,22.49,6.13,28.51C915.12,651.82,920.71,654.83,927.81,654.83z"/>
			<path style="fill:#E8114B;" d="M1051.93,688.57l32.47-268.1h43.84l-32.47,268.1H1051.93z"/>
		</g>
	</g>
</g>
</svg>
