<?xml version="1.0" encoding="utf-8"?>
<!-- Generator: Adobe Illustrator 22.0.0, SVG Export Plug-In . SVG Version: 6.00 Build 0)  -->
<svg version="1.1" id="Capa_1" xmlns="http://www.w3.org/2000/svg" xmlns:xlink="http://www.w3.org/1999/xlink" x="0px" y="0px"
	 viewBox="0 0 1602.76 735" style="enable-background:new 0 0 1602.76 735;" xml:space="preserve">
<g>
	<path style="fill:#E8114B;" d="M1459.8,124.5c1.5-0.6,3.1-0.2,4.7,1.1c1.1,1.1,1.4,2.6,0.9,4.4l-15.5,43.2l17.1-4.1
		c1.5-0.6,2.4-1.1,2.7-1.6l34.8-57.8c0.7-1.1,1.5-1.8,2.2-1.9l49.7-17.9c5.1-1.8,9-4.4,11.5-7.8s3-7.1,1.5-11.1
		c-0.4-1.1-1-2.3-1.8-3.6c-0.9-1.3-2.2-2.4-4-3.3s-4.4-1.3-7.8-1.3c-3.3,0.1-7.7,1.1-13.2,2.9L1506,78.8c-1.1,0.3-2.2,0.3-3.3-0.1
		c-1.1-0.5-1.8-1.3-2.2-2.3c-0.4-1.3-0.3-2.4,0.3-3.5c0.6-1,1.4-1.7,2.5-2l36.7-13.2c20.1-7,32.6-3.5,37.6,10.5
		c1.7,4.6,1.9,8.8,0.8,12.5c-1.1,3.8-3.3,7.1-6.6,10.1c-3.3,3-7.5,5.3-12.4,7.2l-48.1,17.3l-34.3,57c-1.1,2-3.7,3.8-7.8,5.2
		l-22.4,5.2c-2.6,0.6-4.5,0-5.8-1.6s-1.5-3.6-0.9-5.8l14.1-39.6l-33.4,11.6c-9.2,3.1-17.8,3.4-25.8,0.8c-8-2.6-14.2-7.7-18.6-15.4
		l-19-33.6c-2.6-4.8-1.4-8.1,3.6-9.9l14.7-5.2c3-1.1,5.7-0.6,8.3,1.4l26.2,19.6l32.8-12.1l-41.7-40.8c-1.3-1.6-1.8-3.4-1.7-5.2
		c0.6-1.8,1.8-3.1,3.6-3.9h0.3l21-5.8c2.6-0.9,5.1-0.6,7.7,0.9l43.4,23.7c1.1,0.6,1.8,1.4,2.1,2.6c0.3,1.2,0.1,2.3-0.4,3.2
		c-0.6,1.1-1.4,1.8-2.5,2.2c-1.1,0.4-2.2,0.3-3.3-0.3L1428,45.4c-0.2-0.2-0.5-0.2-1.1,0l-15.7,4.4l42.8,41.5c0.4,0.6,0.7,1.2,1,1.9
		c0.3,0.7,0.3,1.5,0.2,2.2c-0.4,1.5-1.3,2.5-2.7,3l-41.5,15.1c-1.7,0.4-3,0.2-3.9-0.6l-28.7-21.2l-12.7,4.7l18,31.7
		c3.3,6.1,8,10.1,14.1,12s13,1.5,20.7-1.3L1459.8,124.5z"/>
	<g style="enable-background:new    ;">
		<path style="fill:#FFFFFF;" d="M276.9,365.9h104.5v40h-153V145h48.5V365.9z"/>
		<path style="fill:#FFFFFF;" d="M644.2,405.9h-37.5c-4.2,0-7.7-1-10.4-3.2c-2.7-2.1-4.7-4.7-5.9-7.9L571,341.7H462.9l-19.5,53.2
			c-1,2.8-2.9,5.3-5.7,7.6c-2.8,2.3-6.3,3.4-10.4,3.4h-37.7L492.1,145h49.6L644.2,405.9z M475.3,307.4h83.2l-31.8-86.8
			c-1.4-3.9-3-8.4-4.8-13.6s-3.5-10.9-5.1-17.1c-1.7,6.1-3.3,11.9-5,17.1c-1.7,5.2-3.2,9.9-4.8,13.9L475.3,307.4z"/>
		<path style="fill:#FFFFFF;" d="M828.4,145v39.9h-78.5v221h-48.5v-221h-78.8V145H828.4z"/>
		<path style="fill:#FFFFFF;" d="M1062.1,405.9h-37.5c-4.2,0-7.7-1-10.4-3.2c-2.7-2.1-4.7-4.7-5.9-7.9l-19.5-53.2H880.7l-19.5,53.2
			c-1,2.8-2.9,5.3-5.7,7.6c-2.8,2.3-6.3,3.4-10.4,3.4h-37.7L910,145h49.6L1062.1,405.9z M893.2,307.4h83.2l-31.8-86.8
			c-1.4-3.9-3-8.4-4.8-13.6c-1.8-5.2-3.5-10.9-5.1-17.1c-1.7,6.1-3.3,11.9-5,17.1s-3.2,9.9-4.8,13.9L893.2,307.4z"/>
		<path style="fill:#FFFFFF;" d="M1225.6,309.7c1.7,4.1,3.5,8.3,5.1,12.5c1.7-4.3,3.4-8.6,5.2-12.8c1.8-4.2,3.7-8.2,5.8-12.1
			l77.2-144.5c1-1.8,1.9-3.3,3-4.3c1-1.1,2.2-1.9,3.4-2.3c1.3-0.5,2.7-0.8,4.2-0.9c1.6-0.1,3.4-0.2,5.6-0.2h36.6V406h-42.8V237.4
			c0-3.1,0.1-6.6,0.3-10.3s0.4-7.5,0.8-11.4l-78.8,147.9c-1.8,3.4-4.2,6-7,7.9c-2.9,1.9-6.3,2.8-10.1,2.8h-6.7
			c-3.8,0-7.2-0.9-10.1-2.8s-5.2-4.5-7-7.9l-79.9-148.5c0.5,4,0.8,7.9,1,11.6c0.2,3.8,0.3,7.3,0.3,10.6v168.5h-42.8V145h36.6
			c2.2,0,4,0.1,5.6,0.2s3,0.4,4.2,0.9s2.4,1.3,3.5,2.3s2.1,2.5,3.1,4.3l77.9,144.9C1221.9,301.5,1223.8,305.5,1225.6,309.7z"/>
	</g>
	<g>
		<g style="enable-background:new    ;">
			<path style="fill:#E8114B;" d="M274.9,427.7h37.5c4.1,0,7.3,1,9.7,3c2.4,2,3.9,4.5,4.5,7.7L361.4,601c1.2,5.7,2.4,11.3,3.4,17
				c1.1,5.7,2.1,11.8,3.1,18.3c2-6.5,4.3-12.7,6.9-18.7c2.5-6,5-11.5,7.4-16.7l74.1-162.6c1.2-2.6,3.3-5.1,6.4-7.3
				c3.1-2.2,6.5-3.3,10.4-3.3H511L382.3,688.6h-42.6L274.9,427.7z"/>
			<path style="fill:#E8114B;" d="M570.1,503.5l-22.2,185.1h-44l22.2-185.1L570.1,503.5L570.1,503.5z M581.3,449.5
				c0,3.9-0.8,7.5-2.4,10.8c-1.6,3.4-3.7,6.3-6.3,8.8s-5.6,4.5-8.9,6s-6.9,2.3-10.5,2.3c-3.5,0-6.9-0.8-10.2-2.3s-6.2-3.5-8.8-6
				c-2.5-2.5-4.5-5.5-6-8.8c-1.5-3.4-2.3-7-2.3-10.8c0-3.9,0.8-7.5,2.4-11c1.6-3.5,3.6-6.5,6.1-9.1s5.4-4.6,8.8-6.1
				s6.7-2.3,10.2-2.3c3.6,0,7.1,0.8,10.5,2.3s6.3,3.5,8.9,6c2.6,2.5,4.7,5.5,6.2,9S581.3,445.5,581.3,449.5z"/>
			<path style="fill:#E8114B;" d="M592.8,688.6l22.6-185.3h22.5c4.3,0,7.9,1,10.6,2.9c2.8,1.9,4.2,5,4.2,9.2c0,0.8-0.1,2.3-0.2,4.3
				c-0.1,2-0.2,5.3-0.4,9.7s-0.4,10.5-0.7,18.5c7.6-14.5,15.9-25.8,24.9-33.7s18.4-11.9,28.2-11.9c4.9,0,9.9,1.1,15,3.3l-8.1,42.6
				c-6-2.5-11.7-3.8-17.1-3.8c-10.7,0-20.1,5.1-28.2,15.3c-8.1,10.2-14.7,26.2-19.8,48l-9.7,81L592.8,688.6L592.8,688.6z"/>
			<path style="fill:#E8114B;" d="M741.1,650.9c0-0.8,0-1.8,0-3c0-1.1,0.1-2.8,0.3-5s0.5-5.2,0.9-8.8c0.4-3.7,1-8.4,1.7-14.2
				l10.3-83h-17.5c-2,0-3.7-0.6-5-1.9s-1.9-3.2-1.9-5.7c0-0.1,0-0.4,0.1-0.7s0.2-1.2,0.3-2.4c0.1-1.3,0.3-3.2,0.6-5.7
				s0.7-6.1,1.2-10.6l28.2-4.9l14.8-50.5c0.7-2.4,2-4.3,3.7-5.6c1.7-1.3,3.9-2,6.4-2H809l-7.2,58.3h44.7l-3.8,31.8h-44.9l-9.9,80.7
				c-0.6,4.9-1,8.8-1.3,11.7s-0.5,5.1-0.7,6.8c-0.2,1.6-0.3,2.8-0.4,3.4s-0.1,1.1-0.1,1.3c0,4.6,1.1,8.2,3.3,10.8
				c2.2,2.7,5.4,4,9.5,4c2.5,0,4.7-0.3,6.5-1s3.4-1.3,4.7-2.1c1.3-0.7,2.5-1.4,3.5-2.1c1-0.7,2-1,3-1c1.3,0,2.4,0.3,3.2,1
				s1.5,1.7,2.1,3l9.6,21.7c-6.6,5.4-14,9.5-22,12.3s-16.2,4.2-24.4,4.2c-13.1,0-23.5-3.5-31.1-10.6
				C745.5,673.7,741.5,663.7,741.1,650.9z"/>
			<path style="fill:#E8114B;" d="M916.3,503.5c-2.4,20.3-4.5,37.5-6.1,51.6c-1.7,14.1-3.1,25.8-4.2,35.2s-1.9,16.8-2.5,22.2
				s-1,9.5-1.3,12.3s-0.5,4.6-0.5,5.6s-0.1,1.8-0.1,2.3c0,7.9,1.5,13.6,4.4,17s7.4,5.1,13.4,5.1c4.7,0,9.5-1.3,14.5-3.9
				c5-2.6,9.8-6.3,14.4-11.1c4.6-4.8,8.9-10.6,12.9-17.5s7.3-14.5,10.1-22.9l11.5-96h44.6L1005,688.5h-22.5c-2,0-4-0.3-5.9-0.8
				s-3.5-1.3-5-2.4c-1.5-1.1-2.7-2.5-3.6-4.2c-0.9-1.7-1.3-3.7-1.3-6v-0.7l1.1-22.5c-9.4,13.2-19.6,23.1-30.8,29.6
				c-11.1,6.5-22.6,9.7-34.5,9.7c-6.9,0-13.1-1.2-18.7-3.7c-5.6-2.5-10.4-6-14.3-10.7c-4-4.7-7-10.5-9.2-17.4s-3.3-14.8-3.3-23.7
				c0-2.4,0.1-4.8,0.2-7.2c0.1-2.4,0.4-4.9,0.7-7.6l13.9-117.5L916.3,503.5L916.3,503.5z"/>
			<path style="fill:#E8114B;" d="M1191.3,688.6h-23.4c-5.4,0-9.2-1.3-11.4-3.8c-2.2-2.5-3.3-5.7-3.3-9.6l1.4-25.3
				c-8.2,12.8-17.4,22.8-27.6,30.2s-21.5,11.1-33.7,11.1c-7,0-13.5-1.4-19.6-4.2s-11.4-6.9-15.9-12.4s-8.1-12.3-10.6-20.6
				c-2.6-8.2-3.9-17.9-3.9-29s1.4-21.8,4.2-32.3c2.8-10.5,6.7-20.3,11.8-29.5s11.3-17.7,18.5-25.3c7.2-7.7,15.3-14.3,24.3-19.8
				s18.6-9.8,29.1-12.9c10.4-3.1,21.4-4.6,32.9-4.6c8.3,0,16.6,0.6,25,1.8c8.4,1.2,16.6,3.4,24.6,6.5L1191.3,688.6z M1110.8,654.8
				c4.9,0,9.8-1.7,14.5-5s9.2-8,13.4-14c4.2-6,8.1-13,11.7-21s6.7-16.7,9.4-26l7-55.9c-3.3-0.4-6.3-0.5-9-0.5
				c-10,0-19.3,2.3-27.8,6.9c-8.5,4.6-15.9,10.7-22.2,18.5c-6.3,7.8-11.2,16.8-14.7,27.1c-3.6,10.3-5.3,21.1-5.3,32.6
				c0,13,2,22.5,6.1,28.5C1098.1,651.8,1103.7,654.8,1110.8,654.8z"/>
			<path style="fill:#E8114B;" d="M1234.9,688.6l32.5-268.1h43.8l-32.5,268.1H1234.9z"/>
		</g>
	</g>
</g>
</svg>
